<?xml version="1.0"?>
<svg xmlns="http://www.w3.org/2000/svg" xmlns:xlink="http://www.w3.org/1999/xlink" xmlns:svgjs="http://svgjs.com/svgjs" version="1.1" width="512" height="512" x="0" y="0" viewBox="0 0 254.182 254.182" style="enable-background:new 0 0 512 512" xml:space="preserve" class=""><g>
<g xmlns="http://www.w3.org/2000/svg">
	<path d="M211.655,137.102c-4.143,0-7.5,3.358-7.5,7.5v77.064h-41.373v-77.064c0-4.142-3.357-7.5-7.5-7.5H98.903   c-4.143,0-7.5,3.358-7.5,7.5v77.064H50.026v-77.064c0-4.142-3.357-7.5-7.5-7.5c-4.143,0-7.5,3.358-7.5,7.5v84.564   c0,4.142,3.357,7.5,7.5,7.5h56.377h56.379h56.373c4.143,0,7.5-3.358,7.5-7.5v-84.564   C219.155,140.46,215.797,137.102,211.655,137.102z M106.403,221.666v-69.564h41.379v69.564H106.403z" fill="#ffffff" data-original="#000000" style=""/>
	<path d="M251.985,139.298L132.389,19.712c-2.928-2.929-7.677-2.928-10.607,0L2.197,139.298c-2.929,2.929-2.929,7.678,0,10.606   c2.93,2.929,7.678,2.929,10.607,0L127.086,35.622l114.293,114.283c1.464,1.464,3.384,2.196,5.303,2.196   c1.919,0,3.839-0.732,5.304-2.197C254.914,146.976,254.914,142.227,251.985,139.298z" fill="#ffffff" data-original="#000000" style=""/>
</g>
<g xmlns="http://www.w3.org/2000/svg">
</g>
<g xmlns="http://www.w3.org/2000/svg">
</g>
<g xmlns="http://www.w3.org/2000/svg">
</g>
<g xmlns="http://www.w3.org/2000/svg">
</g>
<g xmlns="http://www.w3.org/2000/svg">
</g>
<g xmlns="http://www.w3.org/2000/svg">
</g>
<g xmlns="http://www.w3.org/2000/svg">
</g>
<g xmlns="http://www.w3.org/2000/svg">
</g>
<g xmlns="http://www.w3.org/2000/svg">
</g>
<g xmlns="http://www.w3.org/2000/svg">
</g>
<g xmlns="http://www.w3.org/2000/svg">
</g>
<g xmlns="http://www.w3.org/2000/svg">
</g>
<g xmlns="http://www.w3.org/2000/svg">
</g>
<g xmlns="http://www.w3.org/2000/svg">
</g>
<g xmlns="http://www.w3.org/2000/svg">
</g>
</g></svg>
