<svg width="123" height="27" viewBox="0 0 123 27" fill="none" xmlns="http://www.w3.org/2000/svg">
<g clip-path="url(#clip0)">
<path d="M0 26.6099V6.60986C0 5.01856 1.03395 3.49244 2.8744 2.36722C4.71485 1.242 7.21104 0.609863 9.81383 0.609863L123 0.609863V20.6099C123 22.2012 121.966 23.7273 120.126 24.8525C118.285 25.9777 115.789 26.6099 113.186 26.6099H0Z" fill="#262626"/>
<path d="M25.9369 20.6528H25.431C24.5515 20.6528 23.8975 20.4455 23.4691 20.0308C23.0407 19.6206 22.8265 18.9963 22.8265 18.1577V15.8062C22.8265 15.5828 22.8015 15.3846 22.7513 15.2114C22.7012 15.0337 22.6123 14.8856 22.4847 14.7671C22.3617 14.644 22.1954 14.5506 21.9857 14.4868C21.7806 14.423 21.5209 14.3911 21.2064 14.3911H20.9125V13.4409H21.2064C21.5391 13.4409 21.8103 13.4136 22.0199 13.3589C22.2295 13.3042 22.3936 13.2222 22.5121 13.1128C22.6306 12.9989 22.7126 12.8553 22.7582 12.6821C22.8038 12.509 22.8265 12.3039 22.8265 12.0669V10.4468C22.8265 10.064 22.8721 9.71989 22.9633 9.41455C23.0544 9.10465 23.2025 8.84261 23.4076 8.62842C23.6172 8.40967 23.8861 8.24333 24.2142 8.12939C24.5469 8.0109 24.9525 7.95166 25.431 7.95166H25.9369V8.90869H25.5336C24.4763 8.90869 23.9476 9.42139 23.9476 10.4468V12.0396C23.9476 13.1515 23.4668 13.7782 22.5052 13.9194C23.476 14.0151 23.9613 14.6395 23.9613 15.7925V18.1304C23.9613 19.174 24.4854 19.6958 25.5336 19.6958H25.9369V20.6528ZM35.1312 17.8501H33.8051L33.183 15.9019H29.4642L28.8353 17.8501H27.5707L30.5375 8.91553H32.2054L35.1312 17.8501ZM32.8344 14.8149L31.3236 10.0366L29.8129 14.8149H32.8344ZM38.6312 9.16846H36.601V8.19092H39.8344V16.8589H41.8783V17.8501H36.3754V16.8589H38.6312V9.16846ZM48.8851 17.8501V12.9214C48.8851 12.7072 48.876 12.5317 48.8578 12.395C48.8441 12.2583 48.8191 12.1512 48.7826 12.0737C48.7507 11.9917 48.7074 11.9347 48.6527 11.9028C48.6026 11.8709 48.5388 11.855 48.4613 11.855C48.3702 11.855 48.2858 11.8823 48.2084 11.937C48.1309 11.9917 48.0466 12.0806 47.9554 12.2036C47.8689 12.3267 47.7709 12.4907 47.6615 12.6958C47.5567 12.8963 47.4314 13.1447 47.2855 13.4409V17.8501H46.1986V13.0513C46.1986 12.8006 46.1895 12.5978 46.1713 12.4429C46.1576 12.2879 46.1325 12.1672 46.0961 12.0806C46.0642 11.994 46.0209 11.9347 45.9662 11.9028C45.9115 11.8709 45.8454 11.855 45.7679 11.855C45.6859 11.855 45.6084 11.8778 45.5355 11.9233C45.4626 11.9689 45.3806 12.0509 45.2894 12.1694C45.2028 12.2879 45.1049 12.4497 44.9955 12.6548C44.8861 12.8599 44.7562 13.1219 44.6058 13.4409V17.8501H43.5121V10.9868H44.4213L44.476 12.2925C44.5944 12.0327 44.7084 11.8117 44.8177 11.6294C44.9317 11.4471 45.0479 11.3013 45.1664 11.1919C45.2849 11.078 45.4102 10.9959 45.5424 10.9458C45.6791 10.8911 45.8295 10.8638 45.9935 10.8638C46.3627 10.8638 46.6429 10.9845 46.8344 11.2261C47.0258 11.4676 47.1215 11.8413 47.1215 12.3472C47.2308 12.1102 47.3379 11.9006 47.4427 11.7183C47.5476 11.5314 47.6592 11.3765 47.7777 11.2534C47.9008 11.1258 48.0352 11.0301 48.181 10.9663C48.3269 10.8979 48.4955 10.8638 48.6869 10.8638C49.5482 10.8638 49.9789 11.5269 49.9789 12.853V17.8501H48.8851Z" fill="#FFCE37"/>
<path d="M54.4427 10.8638C54.584 10.8638 54.7185 10.8934 54.8461 10.9526C54.9737 11.0073 55.0853 11.0825 55.181 11.1782C55.2767 11.2739 55.3519 11.3856 55.4066 11.5132C55.4659 11.6408 55.4955 11.7752 55.4955 11.9165C55.4955 12.0623 55.4659 12.1991 55.4066 12.3267C55.3519 12.4497 55.2767 12.5591 55.181 12.6548C55.0853 12.7505 54.9737 12.8257 54.8461 12.8804C54.7185 12.9351 54.584 12.9624 54.4427 12.9624C54.2969 12.9624 54.1602 12.9351 54.0326 12.8804C53.9095 12.8257 53.8002 12.7505 53.7045 12.6548C53.6088 12.5591 53.5336 12.4497 53.4789 12.3267C53.4242 12.1991 53.3969 12.0623 53.3969 11.9165C53.3969 11.7752 53.4242 11.6408 53.4789 11.5132C53.5336 11.3856 53.6088 11.2739 53.7045 11.1782C53.8002 11.0825 53.9095 11.0073 54.0326 10.9526C54.1602 10.8934 54.2969 10.8638 54.4427 10.8638ZM54.4427 15.8745C54.584 15.8745 54.7185 15.9041 54.8461 15.9634C54.9737 16.0181 55.0853 16.0933 55.181 16.189C55.2767 16.2847 55.3519 16.3963 55.4066 16.5239C55.4659 16.6515 55.4955 16.786 55.4955 16.9272C55.4955 17.0731 55.4659 17.2098 55.4066 17.3374C55.3519 17.4604 55.2767 17.5698 55.181 17.6655C55.0853 17.7612 54.9737 17.8364 54.8461 17.8911C54.7185 17.9458 54.584 17.9731 54.4427 17.9731C54.2969 17.9731 54.1602 17.9458 54.0326 17.8911C53.9095 17.8364 53.8002 17.7612 53.7045 17.6655C53.6088 17.5698 53.5336 17.4604 53.4789 17.3374C53.4242 17.2098 53.3969 17.0731 53.3969 16.9272C53.3969 16.786 53.4242 16.6515 53.4789 16.5239C53.5336 16.3963 53.6088 16.2847 53.7045 16.189C53.8002 16.0933 53.9095 16.0181 54.0326 15.9634C54.1602 15.9041 54.2969 15.8745 54.4427 15.8745ZM62.14 10.8638C62.2813 10.8638 62.4157 10.8934 62.5433 10.9526C62.6709 11.0073 62.7826 11.0825 62.8783 11.1782C62.974 11.2739 63.0492 11.3856 63.1039 11.5132C63.1631 11.6408 63.1927 11.7752 63.1927 11.9165C63.1927 12.0623 63.1631 12.1991 63.1039 12.3267C63.0492 12.4497 62.974 12.5591 62.8783 12.6548C62.7826 12.7505 62.6709 12.8257 62.5433 12.8804C62.4157 12.9351 62.2813 12.9624 62.14 12.9624C61.9942 12.9624 61.8575 12.9351 61.7299 12.8804C61.6068 12.8257 61.4974 12.7505 61.4017 12.6548C61.306 12.5591 61.2308 12.4497 61.1761 12.3267C61.1215 12.1991 61.0941 12.0623 61.0941 11.9165C61.0941 11.7752 61.1215 11.6408 61.1761 11.5132C61.2308 11.3856 61.306 11.2739 61.4017 11.1782C61.4974 11.0825 61.6068 11.0073 61.7299 10.9526C61.8575 10.8934 61.9942 10.8638 62.14 10.8638ZM62.14 15.8745C62.2813 15.8745 62.4157 15.9041 62.5433 15.9634C62.6709 16.0181 62.7826 16.0933 62.8783 16.189C62.974 16.2847 63.0492 16.3963 63.1039 16.5239C63.1631 16.6515 63.1927 16.786 63.1927 16.9272C63.1927 17.0731 63.1631 17.2098 63.1039 17.3374C63.0492 17.4604 62.974 17.5698 62.8783 17.6655C62.7826 17.7612 62.6709 17.8364 62.5433 17.8911C62.4157 17.9458 62.2813 17.9731 62.14 17.9731C61.9942 17.9731 61.8575 17.9458 61.7299 17.8911C61.6068 17.8364 61.4974 17.7612 61.4017 17.6655C61.306 17.5698 61.2308 17.4604 61.1761 17.3374C61.1215 17.2098 61.0941 17.0731 61.0941 16.9272C61.0941 16.786 61.1215 16.6515 61.1761 16.5239C61.2308 16.3963 61.306 16.2847 61.4017 16.189C61.4974 16.0933 61.6068 16.0181 61.7299 15.9634C61.8575 15.9041 61.9942 15.8745 62.14 15.8745Z" fill="white"/>
<path d="M72.517 15.9771C72.517 16.2186 72.476 16.4351 72.3939 16.6265C72.3119 16.8179 72.2002 16.9888 72.059 17.1392C71.9177 17.285 71.7536 17.4103 71.5668 17.5151C71.3799 17.62 71.1794 17.7065 70.9652 17.7749C70.7556 17.8433 70.5391 17.8934 70.3158 17.9253C70.0925 17.9572 69.8737 17.9731 69.6595 17.9731C69.1947 17.9731 68.7663 17.9526 68.3744 17.9116C67.987 17.8706 67.6065 17.8045 67.2328 17.7134V16.6196C67.6338 16.7336 68.0326 16.8201 68.4291 16.8794C68.8256 16.9386 69.2198 16.9683 69.6117 16.9683C70.1814 16.9683 70.6029 16.8908 70.8763 16.7358C71.1498 16.5809 71.2865 16.3599 71.2865 16.0728C71.2865 15.9497 71.2637 15.8403 71.2181 15.7446C71.1771 15.6444 71.0997 15.5509 70.9857 15.4644C70.8718 15.3732 70.6941 15.2798 70.4525 15.1841C70.2155 15.0884 69.8897 14.979 69.475 14.856C69.1651 14.7648 68.878 14.6623 68.6136 14.5483C68.3539 14.4299 68.1283 14.2909 67.9369 14.1313C67.7455 13.9718 67.5951 13.785 67.4857 13.5708C67.3763 13.3566 67.3217 13.1037 67.3217 12.812C67.3217 12.6206 67.3649 12.411 67.4515 12.1831C67.5427 11.9552 67.6954 11.7433 67.9095 11.5474C68.1237 11.3514 68.4131 11.1896 68.7777 11.062C69.1423 10.9299 69.598 10.8638 70.1449 10.8638C70.4138 10.8638 70.7123 10.8797 71.0404 10.9116C71.3685 10.939 71.7103 10.9891 72.0658 11.062V12.1216C71.6921 12.0304 71.3366 11.9644 70.9994 11.9233C70.6667 11.8778 70.3773 11.855 70.1312 11.855C69.835 11.855 69.5844 11.8778 69.3793 11.9233C69.1788 11.9689 69.0147 12.0327 68.8871 12.1147C68.764 12.1922 68.6752 12.2856 68.6205 12.395C68.5658 12.4998 68.5385 12.6138 68.5385 12.7368C68.5385 12.8599 68.5612 12.9715 68.6068 13.0718C68.6569 13.172 68.7458 13.27 68.8734 13.3657C69.0056 13.4569 69.1879 13.5503 69.4203 13.646C69.6527 13.7371 69.9558 13.8374 70.3295 13.9468C70.7351 14.0653 71.0769 14.1906 71.3549 14.3228C71.6329 14.4504 71.8584 14.5939 72.0316 14.7534C72.2048 14.9129 72.3278 15.0929 72.4008 15.2935C72.4782 15.494 72.517 15.7218 72.517 15.9771ZM80.7543 14.3638C80.7543 14.897 80.6791 15.3869 80.5287 15.8335C80.3783 16.2756 80.1618 16.6561 79.8793 16.9751C79.5967 17.2896 79.2526 17.5356 78.847 17.7134C78.4414 17.8866 77.9812 17.9731 77.4662 17.9731C76.974 17.9731 76.5319 17.8979 76.14 17.7476C75.7526 17.5926 75.4222 17.367 75.1488 17.0708C74.8799 16.7746 74.6726 16.4077 74.5267 15.9702C74.3855 15.5327 74.3148 15.0291 74.3148 14.4595C74.3148 13.9263 74.39 13.4409 74.5404 13.0034C74.6908 12.5614 74.9073 12.1831 75.1898 11.8687C75.4724 11.5496 75.8164 11.3035 76.222 11.1304C76.6276 10.9526 77.0879 10.8638 77.6029 10.8638C78.0951 10.8638 78.5349 10.9412 78.9222 11.0962C79.3142 11.2466 79.6446 11.4699 79.9135 11.7661C80.1869 12.0578 80.3942 12.4224 80.5355 12.8599C80.6814 13.2974 80.7543 13.7987 80.7543 14.3638ZM79.5375 14.4185C79.5375 13.9946 79.4896 13.6255 79.3939 13.311C79.3028 12.992 79.1706 12.7277 78.9974 12.5181C78.8243 12.3039 78.6123 12.1444 78.3617 12.0396C78.1156 11.9302 77.8399 11.8755 77.5345 11.8755C77.1791 11.8755 76.8737 11.9461 76.6185 12.0874C76.3679 12.2241 76.1605 12.4087 75.9965 12.6411C75.837 12.8735 75.7185 13.1447 75.641 13.4546C75.5681 13.7599 75.5316 14.0812 75.5316 14.4185C75.5316 14.8423 75.5772 15.2137 75.6683 15.5327C75.764 15.8517 75.8985 16.1183 76.0717 16.3325C76.2448 16.5422 76.4545 16.7017 76.7006 16.811C76.9467 16.9159 77.2247 16.9683 77.5345 16.9683C77.89 16.9683 78.1931 16.8999 78.4437 16.7632C78.6989 16.6219 78.9063 16.4351 79.0658 16.2026C79.2299 15.9702 79.3483 15.7013 79.4213 15.396C79.4987 15.0861 79.5375 14.7603 79.5375 14.4185ZM88.5677 9.29834C87.9434 9.16618 87.4056 9.1001 86.9545 9.1001C85.8835 9.1001 85.348 9.66064 85.348 10.7817V11.9849H88.3558V12.9761H85.348V17.8501H84.1381V12.9761H81.9301V11.9849H84.1381V10.8501C84.1381 9.02262 85.0905 8.10889 86.9955 8.10889C87.4694 8.10889 87.9935 8.16357 88.5677 8.27295V9.29834ZM95.7045 17.7544C95.4356 17.8228 95.1576 17.8706 94.8705 17.8979C94.5834 17.9299 94.2917 17.9458 93.9955 17.9458C93.1342 17.9458 92.4916 17.7521 92.0677 17.3647C91.6439 16.9728 91.432 16.3735 91.432 15.5669V11.9849H89.5111V10.9868H91.432V9.1001L92.6215 8.79248V10.9868H95.7045V11.9849H92.6215V15.4712C92.6215 15.9634 92.7513 16.3325 93.0111 16.5786C93.2754 16.8201 93.6628 16.9409 94.1732 16.9409C94.392 16.9409 94.6312 16.925 94.891 16.8931C95.1508 16.8566 95.4219 16.8019 95.7045 16.729V17.7544ZM98.3431 7.95166H98.849C99.7286 7.95166 100.383 8.15902 100.811 8.57373C101.239 8.98389 101.453 9.60824 101.453 10.4468V12.0259C101.453 12.2492 101.479 12.4497 101.529 12.6274C101.579 12.8006 101.665 12.9487 101.788 13.0718C101.916 13.1903 102.085 13.2814 102.294 13.3452C102.504 13.409 102.766 13.4409 103.08 13.4409H103.374V14.3911H103.08C102.748 14.3911 102.474 14.4185 102.26 14.4731C102.05 14.5278 101.886 14.6121 101.768 14.7261C101.649 14.8354 101.567 14.9767 101.522 15.1499C101.476 15.3231 101.453 15.5282 101.453 15.7651V18.1577C101.453 18.5405 101.408 18.8846 101.317 19.1899C101.226 19.4998 101.078 19.7619 100.872 19.9761C100.667 20.1948 100.398 20.3612 100.066 20.4751C99.7331 20.5936 99.3275 20.6528 98.849 20.6528H98.3431V19.6958H98.7533C99.806 19.6958 100.332 19.1831 100.332 18.1577V15.7925C100.332 14.6805 100.813 14.0562 101.775 13.9194C100.804 13.8146 100.319 13.188 100.319 12.0396V10.4741C100.319 9.4305 99.7969 8.90869 98.7533 8.90869H98.3431V7.95166Z" fill="#858871"/>
</g>
<defs>
<clipPath id="clip0">
<rect width="123" height="26" fill="white" transform="translate(0 0.609863)"/>
</clipPath>
</defs>
</svg>
